<?xml version="1.0" encoding="UTF-8"?>
<!DOCTYPE svg PUBLIC "-//W3C//DTD SVG 1.1//EN" "http://www.w3.org/Graphics/SVG/1.1/DTD/svg11.dtd">
<!-- Creator: CorelDRAW 2019 (64-Bit) -->
<svg xmlns="http://www.w3.org/2000/svg" xml:space="preserve" width="218.014mm" height="77.2334mm" version="1.1" style="shape-rendering:geometricPrecision; text-rendering:geometricPrecision; image-rendering:optimizeQuality; fill-rule:evenodd; clip-rule:evenodd"
viewBox="0 0 21690.15 7683.94"
 xmlns:xlink="http://www.w3.org/1999/xlink"
 xmlns:xodm="http://www.corel.com/coreldraw/odm/2003">
 <defs>
  <style type="text/css">
   <![CDATA[
    .fil6 {fill:none}
    .fil1 {fill:#FEFEFE}
    .fil5 {fill:#373435}
    .fil2 {fill:#FFF212}
    .fil4 {fill:#EC268F}
    .fil3 {fill:#00AFEF}
    .fil7 {fill:#FEFEFE;fill-rule:nonzero}
    .fil0 {fill:#373435;fill-rule:nonzero}
   ]]>
  </style>
    <clipPath id="id0">
     <path d="M2804.55 213.44c1434.79,0 2597.92,1163.13 2597.92,2597.92 0,1434.79 -1163.13,2597.92 -2597.92,2597.92 -1434.79,0 -2597.92,-1163.13 -2597.92,-2597.92 0,-1434.79 1163.13,-2597.92 2597.92,-2597.92z"/>
    </clipPath>
     <clipPath id="id1">
      <path d="M2804.55 213.44c1434.79,0 2597.92,1163.13 2597.92,2597.92 0,1434.79 -1163.13,2597.92 -2597.92,2597.92 -1434.79,0 -2597.92,-1163.13 -2597.92,-2597.92 0,-1434.79 1163.13,-2597.92 2597.92,-2597.92z"/>
     </clipPath>
      <clipPath id="id2">
       <path d="M2804.55 213.44c1434.79,0 2597.92,1163.13 2597.92,2597.92 0,1434.79 -1163.13,2597.92 -2597.92,2597.92 -1434.79,0 -2597.92,-1163.13 -2597.92,-2597.92 0,-1434.79 1163.13,-2597.92 2597.92,-2597.92z"/>
      </clipPath>
      <clipPath id="id3">
       <path d="M2804.55 213.44c1434.79,0 2597.92,1163.13 2597.92,2597.92 0,1434.79 -1163.13,2597.92 -2597.92,2597.92 -1434.79,0 -2597.92,-1163.13 -2597.92,-2597.92 0,-1434.79 1163.13,-2597.92 2597.92,-2597.92z"/>
      </clipPath>
     <clipPath id="id4">
      <path d="M2804.55 213.44c1434.79,0 2597.92,1163.13 2597.92,2597.92 0,1434.79 -1163.13,2597.92 -2597.92,2597.92 -1434.79,0 -2597.92,-1163.13 -2597.92,-2597.92 0,-1434.79 1163.13,-2597.92 2597.92,-2597.92z"/>
     </clipPath>
 </defs>
 <g id="Capa_x0020_1">
  <metadata id="CorelCorpID_0Corel-Layer"/>
  <g id="_2821564944">
   <path class="fil0" d="M6933.7 253.35l-2116.3 0 0 5161.7 1526.38 0 0 -1467.4 589.91 0c1305.17,0 2116.29,-553.02 2116.29,-1777.1 0,-1157.69 -685.76,-1917.2 -2116.29,-1917.2zm0 2440.75l-589.91 0 0 -1054.46 589.91 0c383.43,0 575.15,221.22 575.15,530.91 0,331.83 -206.46,523.56 -575.15,523.56zm3359.12 -1106.08c-1142.94,0 -1976.18,870.1 -1976.18,1968.81 0,1165.08 855.36,1954.07 2116.29,1954.07 730.01,0 1319.91,-346.57 1585.37,-811.13l-892.22 -530.91c-117.98,140.1 -361.32,309.7 -693.15,309.7 -435.06,0 -715.26,-206.47 -818.5,-560.42l2588.23 -7.37c169.59,-1511.64 -803.76,-2322.76 -1909.84,-2322.76zm-678.39 1607.5c95.87,-346.57 339.2,-575.17 678.39,-575.17 390.83,0 619.4,221.22 693.16,567.79l-1371.55 7.38zm4443.1 -1607.5c-457.18,0 -766.89,154.85 -980.73,390.81l0 -302.33 -1327.29 0 0 6007.43 1327.29 0 0 -2571.21c213.84,243.33 523.56,398.19 980.73,398.19 1157.69,0 1732.85,-980.72 1732.85,-1961.44 0,-980.73 -575.16,-1961.44 -1732.85,-1961.44zm-272.83 2625.09c-390.83,0 -663.65,-265.47 -663.65,-663.65 0,-398.19 272.82,-671.02 663.65,-671.02 412.93,0 671.02,280.21 671.02,671.02 0,383.44 -258.09,663.65 -671.02,663.65zm3285.39 -2625.09c-1142.94,0 -1976.19,870.1 -1976.19,1968.81 0,1165.08 855.36,1954.07 2116.29,1954.07 730.02,0 1319.92,-346.57 1585.37,-811.13l-892.21 -530.91c-117.99,140.1 -361.33,309.7 -693.16,309.7 -435.06,0 -715.25,-206.47 -818.5,-560.42l2588.24 -7.37c169.59,-1511.64 -803.76,-2322.76 -1909.84,-2322.76zm-678.4 1607.5c95.87,-346.57 339.21,-575.17 678.4,-575.17 390.82,0 619.4,221.22 693.15,567.79l-1371.55 7.38zm3912.19 -95.86c-294.97,-59 -634.16,-88.49 -634.16,-317.08 0,-176.97 154.85,-272.82 390.82,-272.82 221.21,0 353.93,110.59 405.56,280.19l1061.83 -258.08c-162.23,-634.16 -833.25,-943.85 -1474.77,-943.85 -936.48,0 -1666.48,449.8 -1666.48,1231.43 0,730.02 449.79,988.1 1172.43,1150.33 435.06,95.85 752.13,110.59 752.13,339.19 0,154.85 -132.73,265.46 -383.44,265.46 -331.81,0 -457.18,-169.6 -494.04,-309.7l-1165.08 361.32c154.86,656.27 921.73,884.86 1673.87,884.86 1098.71,0 1747.6,-464.55 1747.6,-1253.55 0,-685.77 -442.42,-958.6 -1386.27,-1157.69z"/>
   <circle class="fil1" cx="2811.35" cy="2811.35" r="2811.35"/>
   <g>
   </g>
   <g style="clip-path:url(#id0)">
    <g id="_2821560240">
     <g>
     </g>
    </g>
    <g style="clip-path:url(#id1)">
     <g id="_2821561200">
      <g>
      </g>
     </g>
     <g style="clip-path:url(#id2)">
      <g id="_2821562384">
       <circle class="fil2" cx="2821.38" cy="-1117.07" r="3966.59"/>
       <circle class="fil3" cx="6468.66" cy="5168.93" r="3966.59"/>
       <circle class="fil4" cx="-859.52" cy="5168.93" r="3966.59"/>
       <path class="fil5" d="M-374.76 1231.86c1110.57,135.45 2079.52,729.96 2711.31,1588.09 -1110.61,-135.42 -2079.5,-730.03 -2711.31,-1588.09z"/>
       <path class="fil5" d="M2804.56 3647.7c194.77,468.51 302.52,982.3 302.52,1521.23 0,538.93 -107.75,1052.63 -302.52,1521.14 -194.77,-468.51 -302.49,-982.21 -302.49,-1521.14 0,-538.93 107.72,-1052.72 302.49,-1521.23z"/>
       <path class="fil5" d="M6020.45 1227.67c-638.68,869.71 -1623.28,1469.61 -2751,1596.48 638.64,-869.8 1623.33,-1469.56 2751,-1596.48z"/>
      </g>
     </g>
     <g style="clip-path:url(#id3)">
      <path class="fil6" d="M2804.57 -1268.37c2190.68,0 3966.59,1775.9 3966.59,3966.59 0,2190.7 -1775.91,3966.6 -3966.59,3966.6 -2190.7,0 -3966.61,-1775.9 -3966.61,-3966.6 0,-2190.69 1775.91,-3966.59 3966.61,-3966.59z"/>
     </g>
    </g>
    <g style="clip-path:url(#id4)">
     <polygon class="fil6" points="202.14,95.78 5406.97,95.78 5406.97,5526.95 202.14,5526.95 "/>
    </g>
   </g>
   <path class="fil6" d="M2804.55 213.44c1434.79,0 2597.92,1163.13 2597.92,2597.92 0,1434.79 -1163.13,2597.92 -2597.92,2597.92 -1434.79,0 -2597.92,-1163.13 -2597.92,-2597.92 0,-1434.79 1163.13,-2597.92 2597.92,-2597.92z"/>
   <g>
    <path class="fil0" d="M1233.47 7459.37c-141.8,0 -242.86,-49.4 -303.17,-148.2 -60.31,-98.8 -68.82,-255.72 -25.52,-470.76 59.22,-294.07 162.7,-484.69 310.43,-571.87 47.47,-27.9 94.91,-47.08 142.35,-57.53 47.44,-10.47 115.62,-15.7 204.54,-15.7 88.91,0 178.69,11.63 269.33,34.87l-57.08 170.86c-105.99,-16.27 -205.18,-24.4 -297.58,-24.4 -92.41,0 -154.09,13.36 -185.04,40.1 -68.9,59.28 -126.16,202.24 -171.8,428.9 -21.3,105.78 -29.15,193.83 -23.55,264.15 5.6,70.32 19.66,117.4 42.17,141.23 22.52,23.83 60.22,35.74 113.11,35.74 52.89,0 110.03,-8.13 171.42,-24.4 61.4,-16.28 128.96,-40.1 202.69,-71.48l31.53 155.17c-14.43,8.14 -34.26,18.59 -59.5,31.38 -25.24,12.78 -74.84,29.64 -148.79,50.56 -73.95,20.92 -145.8,31.39 -215.54,31.39zm942.98 0c-290.59,0 -400.14,-177.55 -328.63,-532.65 71.5,-355.1 251.39,-532.65 539.65,-532.65 129.02,0 218.29,37.2 267.83,111.59 49.53,74.39 56.98,197.6 22.34,369.62l-25.28 125.54 -608.49 0c-25.98,129.02 -20.98,213.87 15,254.55 23.91,25.57 60.27,38.35 109.09,38.35 94.15,0 197.04,-17.43 308.68,-52.3l57.9 -19.18 17.93 153.43c-125.15,55.79 -250.49,83.69 -376.01,83.69zm312.99 -671.26c1.41,-6.97 3.93,-22.38 7.56,-46.2 3.64,-23.83 5.4,-38.35 5.29,-43.59 -0.11,-5.23 0.2,-16.85 0.92,-34.87 0.73,-18.02 -0.54,-29.06 -3.79,-33.13 -3.24,-4.07 -6.89,-11.91 -10.95,-23.54 -4.05,-11.62 -9.85,-18.88 -17.4,-21.79 -7.55,-2.91 -15.98,-7.26 -25.26,-13.07 -14.63,-8.14 -44.91,-12.21 -90.82,-12.21 -45.91,0 -84.75,5.23 -116.49,15.69 -31.74,10.46 -58.15,29.06 -79.23,55.79 -21.07,26.73 -37.09,55.79 -48.06,87.17 -10.96,31.39 -22.64,74.98 -35.04,130.77l402.76 -8.73 10.53 -52.3zm247.48 648.59l205.38 -1019.96 132.51 0 2.3 101.12 8.72 0c159.59,-82.53 288.49,-123.8 386.71,-123.8 98.23,0 158.62,31.97 181.2,95.9 22.57,63.93 21.93,155.17 -1.94,273.74l-135.52 673 -202.25 0 125.34 -622.44c20.82,-103.45 27.31,-168.83 19.44,-196.15 -7.86,-27.31 -34.46,-40.97 -79.79,-40.97 -45.34,0 -95.74,9.3 -151.2,27.9 -55.47,18.6 -99.61,37.2 -132.41,55.79l-156.23 775.87 -202.24 0zm1077.67 -331.27l96.54 -479.47 -116.81 0 25.27 -125.54 130.45 -24.4 88.55 -240.61 155.17 0 -47.75 237.11 203.99 0 -31.6 156.93 -205.73 0 -97.6 484.69c-15.68,77.88 -20.4,125.82 -14.14,143.84 6.25,18.02 30.29,27.02 72.14,27.02l112.64 -5.22 -32.65 162.14c-41.4,9.3 -88.24,13.95 -140.55,13.95 -91.82,0 -154.68,-24.12 -188.55,-72.35 -33.87,-48.24 -37,-140.94 -9.38,-278.09zm1005.96 -672.13c60.47,-26.15 107.57,-39.23 141.28,-39.23 33.71,0 63.57,4.66 89.6,13.95l-52.2 181.33c-28.59,-2.33 -54.51,-3.49 -77.76,-3.49 -87.17,0 -171.95,25.58 -254.31,76.72l-155.88 774.13 -202.24 0 205.38 -1019.96 127.28 0c-0.55,54.63 1.03,90.08 4.74,106.35l10.46 0c48.63,-33.71 103.19,-63.64 163.67,-89.8zm999.48 494.3c-35.1,174.35 -93.11,306.57 -174.02,396.65 -80.91,90.09 -196.03,135.13 -345.4,135.13 -149.36,0 -246.65,-45.04 -291.85,-135.13 -45.21,-90.08 -50.26,-222.3 -15.15,-396.65 35.1,-174.36 93.46,-306.87 175.06,-397.52 81.6,-90.67 197.09,-136 346.45,-136 149.35,0 246.3,45.34 290.81,136 44.51,90.66 49.21,223.17 14.1,397.52zm-634.7 299.02c18.76,48.23 68.25,72.35 148.45,72.35 80.2,0 139.11,-24.12 176.71,-72.35 37.62,-48.24 71.69,-148.2 102.24,-299.89 30.54,-151.68 36.66,-251.35 18.37,-299.02 -18.31,-47.66 -67.55,-71.48 -147.75,-71.48 -80.21,0 -139.35,23.83 -177.42,71.48 -38.07,47.67 -72.38,147.33 -102.92,299.02 -30.54,151.69 -36.43,251.65 -17.67,299.89zm1591.83 -447.22l378.34 0 -122.17 606.74c-112.12,48.82 -238.5,73.23 -379.14,73.23 -55.79,0 -105.07,-4.94 -147.83,-14.82 -42.76,-9.88 -82.55,-28.76 -119.36,-56.66 -36.81,-27.9 -65.06,-65.1 -84.76,-111.59 -41.93,-103.45 -42.89,-254.55 -2.88,-453.32 50.79,-252.23 132.74,-422.51 245.84,-510.85 56.55,-44.17 115.29,-74.69 176.22,-91.54 60.93,-16.85 140.51,-25.28 238.73,-25.28 98.22,0 198.92,12.21 302.1,36.61l-58.46 169.12c-155.97,-16.27 -260.68,-24.4 -314.15,-24.4 -108.11,0 -178.33,13.95 -210.68,41.85 -65.63,54.63 -120.15,189.75 -163.57,405.37 -43.42,215.61 -42.73,353.64 2.06,414.09 23.66,32.54 77.05,48.81 160.16,48.81 83.1,0 143.96,-6.39 182.57,-19.17l66.35 -329.53 -179.22 -10.46 29.85 -148.2zm980.4 -346.1c60.48,-26.15 107.58,-39.23 141.29,-39.23 33.71,0 63.57,4.66 89.6,13.95l-52.21 181.33c-28.58,-2.33 -54.51,-3.49 -77.75,-3.49 -87.17,0 -171.95,25.58 -254.32,76.72l-155.87 774.13 -202.25 0 205.39 -1019.96 127.27 0c-0.54,54.63 1.04,90.08 4.75,106.35l10.46 0c48.63,-33.71 103.19,-63.64 163.66,-89.8zm334.49 1026.07c-89.5,0 -155.6,-28.19 -198.3,-84.57 -42.7,-56.37 -52.75,-140.64 -30.17,-252.8 22.58,-112.16 75.35,-193.83 158.3,-244.96 82.94,-51.15 192.99,-76.72 330.15,-76.72l167.03 1.74c22.7,-112.75 27.44,-181.03 14.23,-204.86 -13.22,-23.83 -45.98,-35.75 -98.29,-35.75 -52.31,0 -112.01,6.4 -179.09,19.18 -67.09,12.78 -139.35,32.54 -216.8,59.28l-24.21 -148.2c17.67,-6.97 41.28,-15.98 70.82,-27.02 29.54,-11.04 83.32,-25.57 161.34,-43.59 78.02,-18.02 147.82,-27.03 209.43,-27.03 231.31,0 321.69,125.54 271.13,376.61l-134.1 666.02 -129.03 0 -5.77 -109.85 -8.73 0c-14.89,10.47 -34.55,22.96 -58.98,37.49 -24.43,14.53 -68.45,34 -132.06,58.41 -63.61,24.4 -119.25,36.61 -166.9,36.61zm394.01 -493.42c-46.25,-6.97 -110.07,-10.46 -191.43,-10.46 -81.36,0 -133.91,9.88 -157.65,29.64 -30.25,23.24 -51.99,67.7 -65.22,133.38 -13.22,65.67 -13.81,110.42 -1.75,134.25 12.05,23.83 36.97,35.75 74.75,35.75 37.78,0 80.96,-6.69 129.57,-20.06 48.61,-13.36 102.8,-32.83 162.58,-58.4l49.16 -244.1zm-242.5 -666.02l-14.49 -118.56 489.46 -162.15 23.49 160.41 -498.46 120.3zm602.49 1136.78l163.6 -812.48 -116.81 0 24.92 -123.8 121.74 -24.4c35.06,-139.48 87.14,-237.99 156.27,-295.52 69.13,-57.53 154.83,-86.31 257.11,-86.31l124.48 5.23 -46.95 163.89c-57.42,-3.49 -101.23,-5.23 -131.46,-5.23 -30.23,0 -53.13,4.07 -68.71,12.21 -35.13,18.59 -64.4,86.01 -87.8,202.24l224.91 0 -31.59 156.93 -224.92 0 -162.55 807.25 -202.25 0zm519.3 0l205.39 -1019.96 202.24 0 -205.38 1019.96 -202.25 0zm217.08 -1155.96l33 -163.89 233.63 0 -33 163.89 -233.63 0zm924.62 931.05c4.84,39.52 14.64,88.92 29.44,148.2 -11.86,6.97 -27.92,15.98 -48.15,27.02 -20.25,11.04 -61.3,25.87 -123.16,44.46 -61.86,18.59 -123.01,27.9 -183.45,27.9 -133.67,0 -230.09,-43.59 -289.26,-130.77 -59.16,-87.17 -70.37,-222 -33.62,-404.5 40.72,-202.24 115.66,-343.47 224.79,-423.68 97.97,-70.9 215.53,-106.35 352.69,-106.35 90.67,0 177.94,11.04 261.83,33.13l-54.61 158.66c-123.42,-16.27 -218.84,-24.4 -286.25,-24.4 -67.41,0 -117.89,13.95 -151.39,41.85 -59.36,52.3 -106.24,163.89 -140.64,334.75 -34.4,170.86 -23.4,280.71 33.03,329.53 20.89,17.43 50.82,26.15 89.75,26.15 38.94,0 84.81,-6.97 137.59,-20.91 52.79,-13.95 113.26,-34.29 181.41,-61.03zm1019.38 -284.19c-35.11,174.35 -93.11,306.57 -174.02,396.65 -80.91,90.09 -196.04,135.13 -345.4,135.13 -149.36,0 -246.66,-45.04 -291.86,-135.13 -45.21,-90.08 -50.26,-222.3 -15.15,-396.65 35.11,-174.36 93.46,-306.87 175.07,-397.52 81.6,-90.67 197.08,-136 346.44,-136 149.36,0 246.3,45.34 290.81,136 44.51,90.66 49.22,223.17 14.11,397.52zm-634.7 299.02c18.76,48.23 68.24,72.35 148.45,72.35 80.2,0 139.11,-24.12 176.71,-72.35 37.61,-48.24 71.68,-148.2 102.23,-299.89 30.54,-151.68 36.67,-251.35 18.37,-299.02 -18.3,-47.66 -67.55,-71.48 -147.75,-71.48 -80.2,0 -139.34,23.83 -177.41,71.48 -38.07,47.67 -72.39,147.33 -102.93,299.02 -30.54,151.69 -36.43,251.65 -17.66,299.89zm2470.44 210.09l245.4 -1218.73 203.99 0 -218.31 1040.89 445.3 -3.49 -36.51 181.33 -639.87 0zm725.03 0l205.38 -1019.96 202.25 0 -205.38 1019.96 -202.25 0zm217.08 -1155.96l33 -163.89 233.63 0 -33.01 163.89 -233.62 0zm473.84 -163.89l202.24 0 -62.49 310.35c102.09,-22.09 186.25,-33.13 252.51,-33.13 230.15,0 310.47,172.61 240.95,517.83 -73.49,364.97 -236.36,547.46 -488.58,547.46 -53.47,0 -120.06,-6.97 -199.78,-20.92 -79.72,-13.95 -146.65,-30.8 -200.79,-50.56l255.94 -1271.03zm-29.46 1150.73c64.13,16.27 126.42,24.4 186.87,24.4 60.44,0 101.72,-8.72 123.83,-26.15 55.61,-39.53 105.18,-167.38 148.72,-383.58 22.46,-111.58 32.12,-194.1 28.93,-247.58 -1.13,-23.24 -8.83,-39.81 -23.12,-49.69 -14.29,-9.88 -27.64,-15.69 -40.07,-17.44 -12.44,-1.74 -34.34,-2.61 -65.73,-2.61 -63.93,0 -138.92,11.62 -224.96,34.86l-134.46 667.78zm1249.57 -834.28c60.48,-26.15 107.57,-39.23 141.28,-39.23 33.71,0 63.57,4.66 89.6,13.95l-52.2 181.33c-28.59,-2.33 -54.51,-3.49 -77.76,-3.49 -87.17,0 -171.95,25.58 -254.31,76.72l-155.88 774.13 -202.24 0 205.38 -1019.96 127.28 0c-0.54,54.63 1.03,90.08 4.74,106.35l10.46 0c48.64,-33.71 103.19,-63.64 163.67,-89.8zm501.87 1026.07c-290.59,0 -400.14,-177.55 -328.63,-532.65 71.5,-355.1 251.39,-532.65 539.65,-532.65 129.02,0 218.3,37.2 267.83,111.59 49.54,74.39 56.98,197.6 22.34,369.62l-25.27 125.54 -608.5 0c-25.98,129.02 -20.97,213.87 15,254.55 23.91,25.57 60.27,38.35 109.09,38.35 94.15,0 197.04,-17.43 308.68,-52.3l57.91 -19.18 17.92 153.43c-125.14,55.79 -250.49,83.69 -376.01,83.69zm312.99 -671.26c1.41,-6.97 3.93,-22.38 7.56,-46.2 3.64,-23.83 5.4,-38.35 5.29,-43.59 -0.11,-5.23 0.2,-16.85 0.92,-34.87 0.73,-18.02 -0.54,-29.06 -3.79,-33.13 -3.24,-4.07 -6.89,-11.91 -10.94,-23.54 -4.06,-11.62 -9.86,-18.88 -17.41,-21.79 -7.55,-2.91 -15.97,-7.26 -25.26,-13.07 -14.63,-8.14 -44.91,-12.21 -90.82,-12.21 -45.91,0 -84.75,5.23 -116.48,15.69 -31.75,10.46 -58.16,29.06 -79.23,55.79 -21.08,26.73 -37.1,55.79 -48.06,87.17 -10.97,31.39 -22.65,74.98 -35.05,130.77l402.76 -8.73 10.53 -52.3zm759 -354.81c60.48,-26.15 107.57,-39.23 141.28,-39.23 33.71,0 63.57,4.66 89.6,13.95l-52.2 181.33c-28.59,-2.33 -54.51,-3.49 -77.76,-3.49 -87.17,0 -171.94,25.58 -254.31,76.72l-155.88 774.13 -202.24 0 205.38 -1019.96 127.28 0c-0.54,54.63 1.03,90.08 4.74,106.35l10.47 0c48.63,-33.71 103.18,-63.64 163.66,-89.8zm268.07 -133.38l-14.49 -118.56 472.02 -162.15 23.14 162.15 -480.68 118.56zm-136.49 1136.78l205.38 -1019.96 202.24 0 -205.38 1019.96 -202.24 0zm654.22 22.66c-89.5,0 -155.6,-28.19 -198.3,-84.57 -42.69,-56.37 -52.75,-140.64 -30.17,-252.8 22.58,-112.16 75.35,-193.83 158.3,-244.96 82.94,-51.15 192.99,-76.72 330.15,-76.72l167.03 1.74c22.7,-112.75 27.44,-181.03 14.23,-204.86 -13.22,-23.83 -45.98,-35.75 -98.29,-35.75 -52.31,0 -112.01,6.4 -179.09,19.18 -67.09,12.78 -139.35,32.54 -216.8,59.28l-24.21 -148.2c17.68,-6.97 41.29,-15.98 70.83,-27.02 29.54,-11.04 83.31,-25.57 161.33,-43.59 78.02,-18.02 147.83,-27.03 209.44,-27.03 231.3,0 321.68,125.54 271.13,376.61l-134.11 666.02 -129.03 0 -5.77 -109.85 -8.73 0c-14.88,10.47 -34.55,22.96 -58.98,37.49 -24.42,14.53 -68.45,34 -132.06,58.41 -63.61,24.4 -119.25,36.61 -166.9,36.61zm394.01 -493.42c-46.25,-6.97 -110.07,-10.46 -191.43,-10.46 -81.36,0 -133.91,9.88 -157.65,29.64 -30.25,23.24 -51.99,67.7 -65.22,133.38 -13.22,65.67 -13.81,110.42 -1.75,134.25 12.06,23.83 36.97,35.75 74.75,35.75 37.78,0 80.96,-6.69 129.57,-20.06 48.61,-13.36 102.8,-32.83 162.59,-58.4l49.15 -244.1z"/>
    <path class="fil7" d="M12207.19 7459.37c-120.89,0 -210.63,-36.32 -269.23,-108.97 -58.6,-72.65 -79.06,-152.85 -61.4,-240.61 17.67,-87.76 56.13,-160.41 115.37,-217.94 59.25,-57.53 122.82,-99.09 190.73,-124.66 -86.62,-66.25 -118.69,-155.17 -96.23,-266.76 17.79,-88.34 63.28,-161.27 136.47,-218.81 73.19,-57.53 164.99,-86.31 275.42,-86.31 110.42,0 188.2,29.35 233.34,88.05 45.13,58.7 59.5,128.73 43.13,210.09 -23.88,118.56 -103.86,212.72 -239.95,282.45 74.31,58.12 134.32,123.8 180.02,197.02 50.3,-65.09 98.51,-137.16 144.66,-216.19l162.43 50.56c-60.35,103.45 -133.95,206.31 -220.81,308.6 41.26,89.5 73.3,201.67 96.14,336.5l-200.16 6.97c-4.59,-46.49 -22.06,-109.85 -52.4,-190.05 -146.39,126.7 -292.24,190.05 -437.53,190.05zm-36.46 -498.65c-45.04,41.85 -73.17,90.67 -84.42,146.46 -11.23,55.79 -2.11,101.42 27.37,136.87 29.47,35.45 72.11,53.18 127.9,53.18 55.78,0 113.11,-16.28 171.97,-48.82 58.87,-32.54 112.62,-74.39 161.27,-125.54 -59.14,-104.6 -137.7,-190.62 -235.72,-258.04 -67.22,22.09 -123.34,54.05 -168.38,95.89zm216.04 -271.99c45.59,-18.59 85.73,-44.75 120.41,-78.46 34.68,-33.71 56.41,-72.36 65.19,-115.95 8.78,-43.59 4.12,-78.17 -13.98,-103.74 -18.1,-25.57 -51.56,-38.36 -100.38,-38.36 -92.98,0 -148.85,46.5 -167.57,139.48 -17.08,84.85 15.02,150.53 96.33,197.02z"/>
   </g>
   <path class="fil0" d="M18141.9 1652.3l484.56 -918.07c272.44,95.55 544.88,191.07 817.32,286.62 -359.01,301.34 -699.84,607.67 -855.77,964.42 -144.88,-136.34 -265.14,-244.71 -446.1,-332.97z"/>
  </g>
 </g>
</svg>
